<svg xmlns="http://www.w3.org/2000/svg" xmlns:xlink="http://www.w3.org/1999/xlink" width="1923" height="1050" viewBox="0 0 1923 1050">
  <defs>
    <clipPath id="clip-Final_-_Welcome_Screen">
      <rect width="1923" height="1050"/>
    </clipPath>
  </defs>
  <g id="Final_-_Welcome_Screen" data-name="Final - Welcome Screen" clip-path="url(#clip-Final_-_Welcome_Screen)">
    <rect width="1923" height="1050" fill="#fff"/>
    <g id="Welcome_Screen_-_02" data-name="Welcome Screen - 02" transform="translate(-1651 1116)">
      <g id="Browser" transform="translate(1680 -1096)" fill="#fff" stroke="#707070" stroke-width="1">
        <rect width="1866" height="1000" stroke="none"/>
        <rect x="0.5" y="0.5" width="1865" height="999" fill="none"/>
      </g>
      <g id="Background" transform="translate(2076 -2059)">
        <path id="Shape_-_Pink" data-name="Shape - Pink" d="M520.837,976H0V738.163L520.837,857.048V976ZM0,676.236V0H85.449L520.837,319.384V467.418L0,676.236Z" transform="translate(-386 973)" fill="#feeff0"/>
        <path id="Shape_-_Pink-2" data-name="Shape - Pink" d="M0,675.488H0V190.431L494,369.82V584.335L0,675.488ZM494,180.694h0L0,96.385V0H494V180.692Z" transform="translate(962 973)" fill="#feeff0"/>
        <path id="Intersection_1" data-name="Intersection 1" d="M-9194.873,3762h400.484l-400.484,312.181Z" transform="translate(-7738.661 5711.182) rotate(-180)" fill="#feeff0"/>
        <path id="Path_10" data-name="Path 10" d="M1107.051,533h0Z" transform="translate(536.061 331)" fill="#feeff0"/>
      </g>
      <g id="Hello_my_name_is..." data-name="Hello, my name is...">
        <text id="Hello_my_name_is" data-name="Hello, my name is" transform="translate(1845 -888)" fill="#2e23c8" font-size="43" font-family="CoolveticaRg-Regular, Coolvetica"><tspan x="0" y="0" letter-spacing="0.089em">Hello</tspan><tspan y="0" font-size="25">, my name is</tspan></text>
        <line id="Line_1" data-name="Line 1" x2="326" transform="translate(1834.5 -853.5)" fill="none" stroke="#ffe600" stroke-width="10"/>
      </g>
      <g id="Cherith_Simmons" data-name="Cherith Simmons" transform="translate(-78 -4)">
        <text id="CHERITH_SIMMONS-2" data-name="CHERITH
SIMMONS" transform="translate(1923 -598)" fill="#2e23c8" font-size="199" font-family="CoolveticaRg-Regular, Coolvetica"><tspan x="0" y="0">CHERITH</tspan><tspan x="0" y="238">SIMMONS</tspan></text>
      </g>
      <g id="I_m_a_front_end_developer" data-name="I&apos;m a front end developer">
        <rect id="Rectangle_28" data-name="Rectangle 28" width="376" height="57" transform="translate(2874 -543)" fill="#ffe600"/>
        <rect id="Rectangle_29" data-name="Rectangle 29" width="376" height="57" transform="translate(2874 -413)" fill="#ffe600"/>
        <text id="_" data-name="+" transform="translate(2727 -483)" fill="#2e23c8" font-size="199" font-family="CoolveticaRg-Regular, Coolvetica"><tspan x="0" y="0">+</tspan></text>
        <text id="I_m_a_front_end_developer-2" data-name="I&apos;m a
front end
developer" transform="translate(2905 -639)" fill="#2e23c8" font-size="100" font-family="CoolveticaRg-Regular, Coolvetica"><tspan x="0" y="0">I&apos;m a</tspan><tspan x="0" y="120">front end</tspan><tspan x="0" y="240">developer</tspan></text>
      </g>
    </g>
    <g id="Chevron_-_Down" data-name="Chevron - Down" transform="translate(913.902 886)" fill="none">
      <path d="M42.288,42.743l-.009.011L0,7.277,6.106,0,42.288,30.36,78.469,0l6.107,7.277L42.3,42.754Z" stroke="none"/>
      <path d="M 42.66740036010742 38.52687454223633 L 80.34963989257813 6.907643795013428 L 78.09970855712891 4.226440906524658 L 44.21643829345703 32.65790557861328 L 42.28809356689453 34.27598571777344 L 40.35973358154297 32.65791702270508 L 6.476168632507324 4.226488590240479 L 4.226483821868896 6.907572746276855 L 41.90880966186523 38.52687454223633 L 42.28810501098633 38.07470703125 L 42.66740036010742 38.52687454223633 M 42.29726409912109 42.75367736816406 L 42.28810501098633 42.74275970458984 L 42.27894592285156 42.75367736816406 L -1.655680307521834e-06 7.277345180511475 L 6.106385231018066 -1.315917984356929e-06 L 42.28807830810547 30.35977172851563 L 78.46941375732422 -1.315917984356929e-06 L 84.57621002197266 7.277345180511475 L 42.29726409912109 42.75367736816406 Z" stroke="none" fill="#3127c7"/>
    </g>
  </g>
</svg>
